<svg width="24" height="25" viewBox="0 0 24 25" fill="none" xmlns="http://www.w3.org/2000/svg">
<g clip-path="url(#clip0_260_3568)">
<path d="M23.7663 12.8972C23.7663 12.0814 23.7001 11.2613 23.559 10.4588H12.2402V15.0798H18.722C18.453 16.5701 17.5888 17.8885 16.3233 18.7263V21.7246H20.1903C22.4611 19.6346 23.7663 16.5481 23.7663 12.8972Z" fill="#4285F4"/>
<path d="M12.2401 24.6216C15.4766 24.6216 18.2059 23.5589 20.1945 21.7246L16.3276 18.7263C15.2517 19.4582 13.8627 19.8727 12.2445 19.8727C9.11388 19.8727 6.45946 17.7606 5.50705 14.921H1.5166V18.012C3.55371 22.0641 7.7029 24.6216 12.2401 24.6216Z" fill="#34A853"/>
<path d="M5.50277 14.921C5.00011 13.4306 5.00011 11.8168 5.50277 10.3265V7.23553H1.51674C-0.185266 10.6263 -0.185266 14.6212 1.51674 18.0119L5.50277 14.921Z" fill="#FBBC04"/>
<path d="M12.2401 5.37039C13.9509 5.34393 15.6044 5.98769 16.8434 7.1694L20.2695 3.74334C18.1001 1.70623 15.2208 0.586262 12.2401 0.621536C7.7029 0.621536 3.55371 3.17895 1.5166 7.23554L5.50264 10.3265C6.45064 7.48246 9.10947 5.37039 12.2401 5.37039Z" fill="#EA4335"/>
</g>
<defs>
<clipPath id="clip0_260_3568">
<rect width="24" height="24" fill="white" transform="translate(0 0.620728)"/>
</clipPath>
</defs>
</svg>
