<svg width="128" height="75" viewBox="0 0 128 75" fill="none" xmlns="http://www.w3.org/2000/svg">
<path d="M3.70188 41.0071C1.81408 38.9951 1.69859 35.9009 3.53983 33.8462C35.0937 -1.3662 72.2072 -13.0978 111.626 21.1281C116.182 24.93 120.048 29.2827 124.042 33.6023C126.027 35.7489 126.037 39.0909 124.036 41.2231C120.749 44.7268 117.49 48.2408 114.003 51.5502C100.016 64.5611 81.8349 74.9006 62.2105 74.3214C39.3355 73.2667 19.5555 58.8899 4.86748 42.274C4.48455 41.848 4.09508 41.4262 3.70188 41.0071ZM63.975 64.294C63.9788 64.2978 63.9852 64.2967 63.9877 64.2919C71.3603 49.6505 78.6984 35.225 86.0796 20.6093C86.6079 19.5657 87.0081 18.4858 87.292 17.3728C87.8216 15.2966 86.5826 13.2482 84.6196 12.3893C70.8147 6.34905 57.0377 6.36275 43.2261 12.4418C41.3353 13.2739 40.1013 15.219 40.5967 17.2246C40.8512 18.2548 41.2188 19.254 41.6956 20.2203C49.1216 34.9858 56.4698 49.5178 63.9735 64.2919C63.9739 64.2927 63.9744 64.2934 63.975 64.294V64.294ZM100.519 21.6127C98.0693 19.8129 94.6369 20.5674 93.131 23.2076C88.9483 30.5409 85.4179 38.1092 81.5496 45.6542C79.0166 50.7462 76.5787 55.89 74.2013 61.0512V61.0512C73.1699 63.2838 75.4584 65.6375 77.8101 64.9177C92.3943 60.4538 103.999 51.7239 114.383 41.0007C116.289 39.0333 116.335 35.9297 114.456 33.9374C110.157 29.3801 105.538 25.3014 100.519 21.6127ZM55.303 66.2751C55.303 66.2736 55.3036 66.2723 55.3047 66.2713C55.3458 66.2336 55.3882 66.1947 55.4308 66.1554C55.5473 66.0483 55.5887 65.882 55.5356 65.733C51.8126 55.288 46.4455 45.5683 41.4104 35.7123C39.1883 31.5953 37.0234 27.443 34.7334 23.3687C33.2308 20.6952 29.7709 19.9041 27.302 21.7236C22.3233 25.3927 17.7424 29.4618 13.5107 33.9494C11.6703 35.9011 11.6685 38.9308 13.5008 40.8902C24.7906 52.963 38.9864 62.7715 55.2968 66.2801C55.3 66.2808 55.303 66.2784 55.303 66.2751V66.2751Z" fill="#ED7600"/>
<circle cx="64.0001" cy="24.0226" r="9.73029" fill="#ED7600"/>
</svg>
